<svg width="101" height="30" viewBox="0 0 101 30" fill="none" xmlns="http://www.w3.org/2000/svg">
<g filter="url(#filter0_b_5_28)">
<path d="M39.4149 24L32.6229 7.2H35.6229L40.9269 20.808H39.8709L45.2229 7.2H48.1749L41.3349 24H39.4149ZM53.4029 24.24C52.4269 24.24 51.5549 24.024 50.7869 23.592C50.0349 23.16 49.4429 22.568 49.0109 21.816C48.5949 21.048 48.3869 20.168 48.3869 19.176V12.48H51.0269V19.056C51.0269 19.616 51.1149 20.096 51.2909 20.496C51.4829 20.88 51.7549 21.176 52.1069 21.384C52.4749 21.592 52.9069 21.696 53.4029 21.696C54.1709 21.696 54.7549 21.472 55.1549 21.024C55.5709 20.56 55.7789 19.904 55.7789 19.056V12.48H58.4189V19.176C58.4189 20.184 58.2029 21.072 57.7709 21.84C57.3549 22.592 56.7709 23.184 56.0189 23.616C55.2669 24.032 54.3949 24.24 53.4029 24.24ZM65.8974 24.24C64.8574 24.24 63.9134 23.976 63.0654 23.448C62.2334 22.92 61.5694 22.208 61.0734 21.312C60.5934 20.4 60.3534 19.384 60.3534 18.264C60.3534 17.128 60.5934 16.112 61.0734 15.216C61.5694 14.304 62.2334 13.584 63.0654 13.056C63.9134 12.512 64.8574 12.24 65.8974 12.24C66.7774 12.24 67.5534 12.432 68.2254 12.816C68.9134 13.184 69.4574 13.696 69.8574 14.352C70.2574 15.008 70.4574 15.752 70.4574 16.584V19.896C70.4574 20.728 70.2574 21.472 69.8574 22.128C69.4734 22.784 68.9374 23.304 68.2494 23.688C67.5614 24.056 66.7774 24.24 65.8974 24.24ZM66.3294 21.744C66.9854 21.744 67.5534 21.6 68.0334 21.312C68.5294 21.008 68.9134 20.592 69.1854 20.064C69.4574 19.536 69.5934 18.928 69.5934 18.24C69.5934 17.552 69.4574 16.944 69.1854 16.416C68.9134 15.888 68.5294 15.48 68.0334 15.192C67.5534 14.888 66.9854 14.736 66.3294 14.736C65.6894 14.736 65.1214 14.888 64.6254 15.192C64.1454 15.48 63.7614 15.888 63.4734 16.416C63.2014 16.944 63.0654 17.552 63.0654 18.24C63.0654 18.928 63.2014 19.536 63.4734 20.064C63.7614 20.592 64.1454 21.008 64.6254 21.312C65.1214 21.6 65.6894 21.744 66.3294 21.744ZM72.0654 24H69.4254V20.904L69.8814 18.096L69.4254 15.312V6.72H72.0654V24ZM75.0193 24V12.48H77.6593V24H75.0193ZM76.3393 10.368C75.8913 10.368 75.5153 10.216 75.2113 9.912C74.9233 9.608 74.7793 9.232 74.7793 8.784C74.7793 8.336 74.9233 7.96 75.2113 7.656C75.5153 7.352 75.8913 7.2 76.3393 7.2C76.8033 7.2 77.1793 7.352 77.4673 7.656C77.7553 7.96 77.8993 8.336 77.8993 8.784C77.8993 9.232 77.7553 9.608 77.4673 9.912C77.1793 10.216 76.8033 10.368 76.3393 10.368ZM82.2043 24V10.968C82.2043 10.088 82.3963 9.312 82.7803 8.64C83.1803 7.968 83.7243 7.44 84.4123 7.056C85.1163 6.672 85.9243 6.48 86.8363 6.48C87.5403 6.48 88.1403 6.6 88.6363 6.84C89.1323 7.08 89.5963 7.424 90.0283 7.872L88.3243 9.576C88.1323 9.384 87.9243 9.232 87.7003 9.12C87.4763 9.008 87.1883 8.952 86.8363 8.952C86.1963 8.952 85.7003 9.128 85.3483 9.48C85.0123 9.816 84.8443 10.304 84.8443 10.944V24H82.2043ZM79.4443 14.88V12.48H88.3243V14.88H79.4443ZM93.7153 24.12L88.7953 12.48H91.6992L95.0593 21.024H94.2193L97.7713 12.48H100.699L95.3473 24.12H93.7153ZM90.2833 28.8L93.8593 21.432L95.3473 24.12L93.2113 28.8H90.2833Z" fill="url(#paint0_linear_5_28)"/>
</g>
<g filter="url(#filter1_d_5_28)">
<path d="M1.75879 19.4063C1.98304 19.4063 2.16483 19.2173 2.16483 18.984C2.16483 18.7508 1.98304 18.5618 1.75879 18.5618C1.53454 18.5618 1.35275 18.7508 1.35275 18.984C1.35275 19.2173 1.53454 19.4063 1.75879 19.4063Z" fill="url(#paint1_linear_5_28)"/>
</g>
<g filter="url(#filter2_d_5_28)">
<path d="M25.7994 22.8016C26.0236 22.8016 26.2054 22.6125 26.2054 22.3793C26.2054 22.1461 26.0236 21.957 25.7994 21.957C25.5751 21.957 25.3933 22.1461 25.3933 22.3793C25.3933 22.6125 25.5751 22.8016 25.7994 22.8016Z" fill="url(#paint2_linear_5_28)"/>
</g>
<g filter="url(#filter3_d_5_28)">
<path d="M6.78417 15.6515C6.87061 15.6515 6.94069 15.5786 6.94069 15.4887C6.94069 15.3988 6.87061 15.3259 6.78417 15.3259C6.69773 15.3259 6.62766 15.3988 6.62766 15.4887C6.62766 15.5786 6.69773 15.6515 6.78417 15.6515Z" fill="url(#paint3_linear_5_28)"/>
</g>
<g filter="url(#filter4_d_5_28)">
<path d="M3.48414 13.9061C3.40413 13.9187 3.32969 13.8679 3.30602 13.783C3.08414 13.0289 2.96745 12.9374 2.24182 12.965C2.15808 12.9675 2.08436 12.906 2.0723 12.8228C2.06008 12.7385 2.11225 12.6595 2.19265 12.6339C2.88669 12.4199 2.96142 12.3161 2.97862 11.5257C2.98067 11.438 3.03513 11.3669 3.11403 11.3545C3.19515 11.3417 3.26848 11.3929 3.29437 11.4773C3.51386 12.2306 3.63055 12.3221 4.35507 12.2946C4.4412 12.2929 4.51347 12.3525 4.52587 12.4379C4.53793 12.521 4.48797 12.5997 4.40536 12.6257C3.71053 12.8421 3.63675 12.9446 3.62177 13.7346C3.61767 13.8239 3.56193 13.894 3.48414 13.9061Z" fill="url(#paint4_linear_5_28)"/>
</g>
<path d="M19.4326 8.49453C19.248 8.56427 19.125 8.74066 19.125 8.93754C19.125 9.13441 19.248 9.31073 19.4326 9.38047C20.9051 9.93294 22.067 11.0949 22.6196 12.5674C22.6892 12.7519 22.8656 12.8751 23.0625 12.8751C23.2594 12.8751 23.4358 12.7519 23.5054 12.5674C24.058 11.0949 25.2199 9.93294 26.6924 9.38047C26.877 9.31073 27 9.13441 27 8.93754C27 8.74066 26.877 8.56427 26.6924 8.49453C25.2199 7.94206 24.058 6.78011 23.5054 5.30761C23.4358 5.12305 23.2594 5 23.0625 5C22.8656 5 22.6892 5.12305 22.6196 5.30761C22.067 6.78011 20.9051 7.94206 19.4326 8.49453ZM14.4123 8.00645C14.3057 7.77265 14.0719 7.62504 13.8176 7.62504C13.5633 7.62504 13.3295 7.77265 13.2229 8.00645C11.8252 11.0241 9.40004 13.4484 6.38145 14.8438C6.14766 14.9503 6 15.1841 6 15.4425C6 15.701 6.14766 15.9306 6.38145 16.0373C9.39898 17.431 11.8262 19.8565 13.2188 22.8746C13.3254 23.1085 13.5592 23.256 13.8135 23.256C14.0678 23.256 14.3016 23.1085 14.4082 22.8746C15.8034 19.8538 18.2287 17.4284 21.2496 16.0331C21.4834 15.9266 21.6311 15.6928 21.6311 15.4385C21.6311 15.1841 21.4834 14.9503 21.2496 14.8438C18.2315 13.4512 15.806 11.024 14.4123 8.00645ZM22.6196 18.4326C22.067 19.9051 20.9051 21.067 19.4326 21.6195C19.248 21.6893 19.125 21.8657 19.125 22.0626C19.125 22.2595 19.248 22.4357 19.4326 22.5055C20.9051 23.058 22.067 24.2199 22.6196 25.6924C22.6892 25.8769 22.8656 26 23.0625 26C23.2594 26 23.4358 25.8769 23.5054 25.6924C24.058 24.2199 25.2199 23.058 26.6924 22.5055C26.877 22.4357 27 22.2595 27 22.0626C27 21.8657 26.877 21.6893 26.6924 21.6195C25.2199 21.067 24.058 19.9051 23.5054 18.4326C23.4358 18.2481 23.2594 18.1251 23.0625 18.1251C22.8656 18.1251 22.6892 18.2481 22.6196 18.4326Z" fill="url(#paint5_linear_5_28)"/>
<path d="M13.2283 17.0857C6.06413 19.6733 0.59967 22.7987 1.02303 24.0665C1.44639 25.3342 7.59725 24.2643 14.7614 21.6767C21.9255 19.0891 27.39 15.9637 26.9666 14.696C26.5432 13.4282 20.3924 14.4981 13.2283 17.0857Z" stroke="url(#paint6_linear_5_28)" stroke-width="0.549291"/>
<g style="mix-blend-mode:screen" filter="url(#filter5_f_5_28)">
<path d="M13.2283 17.0855C6.06413 19.6731 0.59967 22.7985 1.02303 24.0662C1.44639 25.334 7.59725 24.2641 14.7614 21.6765C21.9255 19.0889 27.39 15.9635 26.9666 14.6957C26.5432 13.4279 20.3924 14.4979 13.2283 17.0855Z" stroke="url(#paint7_linear_5_28)" stroke-width="0.549291"/>
</g>
<defs>
<filter id="filter0_b_5_28" x="28.6229" y="2.48" width="76.0764" height="30.32" filterUnits="userSpaceOnUse" color-interpolation-filters="sRGB">
<feFlood flood-opacity="0" result="BackgroundImageFix"/>
<feGaussianBlur in="BackgroundImageFix" stdDeviation="2"/>
<feComposite in2="SourceAlpha" operator="in" result="effect1_backgroundBlur_5_28"/>
<feBlend mode="normal" in="SourceGraphic" in2="effect1_backgroundBlur_5_28" result="shape"/>
</filter>
<filter id="filter1_d_5_28" x="0.466855" y="17.6759" width="2.58387" height="2.61629" filterUnits="userSpaceOnUse" color-interpolation-filters="sRGB">
<feFlood flood-opacity="0" result="BackgroundImageFix"/>
<feColorMatrix in="SourceAlpha" type="matrix" values="0 0 0 0 0 0 0 0 0 0 0 0 0 0 0 0 0 0 127 0" result="hardAlpha"/>
<feOffset/>
<feGaussianBlur stdDeviation="0.442949"/>
<feComposite in2="hardAlpha" operator="out"/>
<feColorMatrix type="matrix" values="0 0 0 0 0.592157 0 0 0 0 0.392157 0 0 0 0 1 0 0 0 1 0"/>
<feBlend mode="normal" in2="BackgroundImageFix" result="effect1_dropShadow_5_28"/>
<feBlend mode="normal" in="SourceGraphic" in2="effect1_dropShadow_5_28" result="shape"/>
</filter>
<filter id="filter2_d_5_28" x="24.5074" y="21.0711" width="2.5839" height="2.61639" filterUnits="userSpaceOnUse" color-interpolation-filters="sRGB">
<feFlood flood-opacity="0" result="BackgroundImageFix"/>
<feColorMatrix in="SourceAlpha" type="matrix" values="0 0 0 0 0 0 0 0 0 0 0 0 0 0 0 0 0 0 127 0" result="hardAlpha"/>
<feOffset/>
<feGaussianBlur stdDeviation="0.442949"/>
<feComposite in2="hardAlpha" operator="out"/>
<feColorMatrix type="matrix" values="0 0 0 0 0.592157 0 0 0 0 0.392157 0 0 0 0 1 0 0 0 1 0"/>
<feBlend mode="normal" in2="BackgroundImageFix" result="effect1_dropShadow_5_28"/>
<feBlend mode="normal" in="SourceGraphic" in2="effect1_dropShadow_5_28" result="shape"/>
</filter>
<filter id="filter3_d_5_28" x="6.28617" y="14.9844" width="0.996006" height="1.00857" filterUnits="userSpaceOnUse" color-interpolation-filters="sRGB">
<feFlood flood-opacity="0" result="BackgroundImageFix"/>
<feColorMatrix in="SourceAlpha" type="matrix" values="0 0 0 0 0 0 0 0 0 0 0 0 0 0 0 0 0 0 127 0" result="hardAlpha"/>
<feOffset/>
<feGaussianBlur stdDeviation="0.170743"/>
<feComposite in2="hardAlpha" operator="out"/>
<feColorMatrix type="matrix" values="0 0 0 0 0.592157 0 0 0 0 0.392157 0 0 0 0 1 0 0 0 1 0"/>
<feBlend mode="normal" in2="BackgroundImageFix" result="effect1_dropShadow_5_28"/>
<feBlend mode="normal" in="SourceGraphic" in2="effect1_dropShadow_5_28" result="shape"/>
</filter>
<filter id="filter4_d_5_28" x="0.988902" y="10.5525" width="4.62037" height="4.71871" filterUnits="userSpaceOnUse" color-interpolation-filters="sRGB">
<feFlood flood-opacity="0" result="BackgroundImageFix"/>
<feColorMatrix in="SourceAlpha" type="matrix" values="0 0 0 0 0 0 0 0 0 0 0 0 0 0 0 0 0 0 127 0" result="hardAlpha"/>
<feOffset dy="0.281606"/>
<feGaussianBlur stdDeviation="0.540812"/>
<feComposite in2="hardAlpha" operator="out"/>
<feColorMatrix type="matrix" values="0 0 0 0 0.220722 0 0 0 0 0.210451 0 0 0 0 0.241667 0 0 0 0.6 0"/>
<feBlend mode="normal" in2="BackgroundImageFix" result="effect1_dropShadow_5_28"/>
<feBlend mode="normal" in="SourceGraphic" in2="effect1_dropShadow_5_28" result="shape"/>
</filter>
<filter id="filter5_f_5_28" x="0.470799" y="13.6334" width="27.048" height="11.4952" filterUnits="userSpaceOnUse" color-interpolation-filters="sRGB">
<feFlood flood-opacity="0" result="BackgroundImageFix"/>
<feBlend mode="normal" in="SourceGraphic" in2="BackgroundImageFix" result="shape"/>
<feGaussianBlur stdDeviation="0.127195" result="effect1_foregroundBlur_5_28"/>
</filter>
<linearGradient id="paint0_linear_5_28" x1="66.5" y1="6.72414" x2="66.5" y2="22.7586" gradientUnits="userSpaceOnUse">
<stop stop-color="#877DFF"/>
<stop offset="1" stop-color="#7456FF"/>
</linearGradient>
<linearGradient id="paint1_linear_5_28" x1="1.37681" y1="18.9404" x2="2.18417" y2="18.9566" gradientUnits="userSpaceOnUse">
<stop stop-color="#26A4FF"/>
<stop offset="1" stop-color="#0D9AFF"/>
</linearGradient>
<linearGradient id="paint2_linear_5_28" x1="25.4175" y1="22.3356" x2="26.2248" y2="22.352" gradientUnits="userSpaceOnUse">
<stop stop-color="#26A4FF"/>
<stop offset="1" stop-color="#0D9AFF"/>
</linearGradient>
<linearGradient id="paint3_linear_5_28" x1="6.63694" y1="15.472" x2="6.94815" y2="15.4782" gradientUnits="userSpaceOnUse">
<stop stop-color="#26A4FF"/>
<stop offset="1" stop-color="#0D9AFF"/>
</linearGradient>
<linearGradient id="paint4_linear_5_28" x1="4.43403" y1="12.3173" x2="1.99721" y2="12.7212" gradientUnits="userSpaceOnUse">
<stop stop-color="#26A4FF"/>
<stop offset="1" stop-color="#0D9AFF"/>
</linearGradient>
<linearGradient id="paint5_linear_5_28" x1="6" y1="5" x2="27" y2="26" gradientUnits="userSpaceOnUse">
<stop stop-color="#868CFF"/>
<stop offset="1" stop-color="#4318FF"/>
</linearGradient>
<linearGradient id="paint6_linear_5_28" x1="1.43908" y1="25.8028" x2="0.370687" y2="22.7888" gradientUnits="userSpaceOnUse">
<stop stop-color="#3F5FFF"/>
<stop offset="1" stop-color="#3F5FFF" stop-opacity="0"/>
</linearGradient>
<linearGradient id="paint7_linear_5_28" x1="1.43908" y1="25.8025" x2="0.370687" y2="22.7886" gradientUnits="userSpaceOnUse">
<stop stop-color="#1DA0FF"/>
<stop offset="1" stop-color="#199FFF" stop-opacity="0.13"/>
</linearGradient>
</defs>
</svg>
